<svg viewBox="-768 -361 1536 722" width="1536" height="722" style="background-color: rgb(255, 255, 255);" xmlns="http://www.w3.org/2000/svg"><path d="M-151.258087909687,-33.39454701689091L-186.88136400947394,-44.83494870089547M-186.88136400947397,-156.50433769642228L-186.88136400947394,-44.83494870089547M-186.88136400947394,-44.83494870089547L-255.20183125239095,14.529486271283373M-151.258087909687,-145.06393601241774L-151.258087909687,-33.39454701689091M-151.258087909687,-33.39454701689091L-219.57855515260394,25.969887955287923" style="fill:none;stroke:rgb(0,0,0);stroke-width:1;stroke-linecap:round"></path><path d="M-151.25808790968696,-33.39454701689091L-186.88136400947394,-44.83494870089548L-186.88136400947394,-156.50433769642234zM-255.20183125239095,14.529486271283359L-186.88136400947394,-44.83494870089548L-151.25808790968696,-33.39454701689091z" style="fill:rgb(238,238,238); fill-opacity: 0.4"></path><path d="M-18.979331065813412,9.08672585412751L-86.4066813745589,-12.567542267067266M-86.40668137455891,-124.23693126259411L-86.4066813745589,-12.567542267067266M-86.4066813745589,-12.567542267067266L-154.72714861747585,46.79689270511158" style="fill:none;stroke:rgb(0,0,0);stroke-width:1;stroke-linecap:round"></path><path d="M-151.258087909687,-145.06393601241774L-151.25808790968696,-33.39454701689091L-186.88136400947394,-156.50433769642234z" style="fill:rgb(238,238,238); fill-opacity: 0.4"></path><path d="M-151.258087909687,-145.06393601241774L-186.88136400947397,-156.50433769642228M-186.88136400947397,-156.50433769642228L-255.20183125239095,-97.13990272424346" style="fill:none;stroke:rgb(0,0,0);stroke-width:1;stroke-linecap:round"></path><path d="M-219.5785551526039,25.969887955287927L-151.25808790968696,-33.39454701689091L-151.258087909687,-145.06393601241774zM-219.5785551526039,25.969887955287927L-255.20183125239095,14.529486271283359L-151.25808790968696,-33.39454701689091zM-186.88136400947394,-156.50433769642234L-186.88136400947394,-44.83494870089548L-255.20183125239095,-97.13990272424347z" style="fill:rgb(238,238,238); fill-opacity: 0.4"></path><path d="M-185.31760802350084,-64.77565743576254L-220.9408841232878,-76.21605911976708M-220.9408841232878,-92.32654600447695L-220.9408841232878,-76.21605911976708M-220.9408841232878,-76.21605911976708L-230.79744375323577,-67.65158178501773" style="fill:none;stroke:rgb(0,0,0);stroke-width:1;stroke-linecap:round"></path><path d="M-18.979331065813415,9.086725854127517L-86.4066813745589,-12.567542267067264L-86.4066813745589,-124.23693126259411z" style="fill:rgb(238,238,238); fill-opacity: 0.4"></path><path d="M-18.979331065813422,-102.58266314139932L-18.979331065813412,9.08672585412751M-18.979331065813412,9.08672585412751L-87.29979830873037,68.45116082630636" style="fill:none;stroke:rgb(0,0,0);stroke-width:1;stroke-linecap:round"></path><path d="M-186.88136400947394,-44.83494870089548L-255.20183125239095,14.529486271283359L-255.20183125239095,-97.13990272424347z" style="fill:rgb(238,238,238); fill-opacity: 0.4"></path><path d="M-151.258087909687,-145.06393601241774L-219.57855515260394,-85.6995010402389" style="fill:none;stroke:rgb(0,0,0);stroke-width:1;stroke-linecap:round"></path><path d="M-185.3176080235008,-64.77565743576254L-220.9408841232878,-76.21605911976711L-220.9408841232878,-92.32654600447697z" style="fill:rgb(153,221,255); fill-opacity: 0.4"></path><path d="M-154.72714861747585,46.79689270511158L-86.4066813745589,-12.567542267067264L-18.979331065813415,9.086725854127517z" style="fill:rgb(238,238,238); fill-opacity: 0.4"></path><path d="M-255.20183125239095,-97.13990272424346L-255.20183125239095,14.529486271283373M-255.20183125239095,14.529486271283373L-219.57855515260394,25.969887955287923M-185.31760802350084,-80.8861443204724L-220.9408841232878,-92.32654600447695M-220.9408841232878,-92.32654600447695L-230.79744375323577,-83.7620686697276" style="fill:none;stroke:rgb(0,0,0);stroke-width:1;stroke-linecap:round"></path><path d="M-230.79744375323577,-67.65158178501774L-220.9408841232878,-76.21605911976711L-185.3176080235008,-64.77565743576254zM-220.9408841232878,-92.32654600447697L-220.9408841232878,-76.21605911976711L-230.79744375323577,-83.76206866972761zM-220.9408841232878,-76.21605911976711L-230.79744375323577,-67.65158178501774L-230.79744375323577,-83.76206866972761z" style="fill:rgb(153,221,255); fill-opacity: 0.4"></path><path d="M-230.79744375323577,-83.7620686697276L-230.79744375323577,-67.65158178501773M-230.79744375323577,-67.65158178501773L-195.17416765344876,-56.21118010101318M-185.31760802350084,-80.8861443204724L-185.31760802350084,-64.77565743576254M-185.31760802350084,-64.77565743576254L-195.17416765344876,-56.21118010101318M-185.31760697969355,-80.88614383664039L-185.31760697969355,-64.77565695193051M-185.31760697969355,-64.77565695193051L-195.17416625714344,-56.21117992347072M-185.31760697969355,-64.77565695193051L-125.39448150901006,-47.721657238522724" style="fill:none;stroke:rgb(0,0,0);stroke-width:1;stroke-linecap:round"></path><path d="M-185.3176080235008,-80.8861443204724L-185.3176080235008,-64.77565743576254L-220.9408841232878,-92.32654600447697zM-195.17416765344876,-56.21118010101318L-230.79744375323577,-67.65158178501774L-185.3176080235008,-64.77565743576254z" style="fill:rgb(153,221,255); fill-opacity: 0.4"></path><path d="M-230.79744375323577,-83.7620686697276L-195.17416765344876,-72.32166698572304" style="fill:none;stroke:rgb(0,0,0);stroke-width:1;stroke-linecap:round"></path><path d="M-230.79744375323577,-83.76206866972761L-195.17416765344876,-72.32166698572304L-220.9408841232878,-92.32654600447697z" style="fill:rgb(153,221,255); fill-opacity: 0.4"></path><path d="M-185.31760834506792,-80.88614442374357L-185.31760834506792,-64.7756575390337L-195.1741679750159,-56.21118020428435z" style="fill:rgb(255,187,187); fill-opacity: 0.4"></path><path d="M-195.17416765344876,-56.21118010101318L-185.3176080235008,-64.77565743576254L-185.3176080235008,-80.8861443204724zM-230.79744375323577,-83.76206866972761L-230.79744375323577,-67.65158178501774L-195.17416765344876,-72.32166698572304zM-195.17416765344876,-72.32166698572304L-185.3176080235008,-80.8861443204724L-220.9408841232878,-92.32654600447697z" style="fill:rgb(153,221,255); fill-opacity: 0.4"></path><path d="M-219.5785551526039,-85.6995010402389L-151.258087909687,-145.06393601241774L-186.88136400947394,-156.50433769642234z" style="fill:rgb(238,238,238); fill-opacity: 0.4"></path><path d="M-219.57855515260394,-85.6995010402389L-219.57855515260394,25.969887955287923M-185.31760802350084,-80.8861443204724L-195.17416765344876,-72.32166698572304M-185.31760697969355,-80.88614383664039L-195.17416625714344,-72.3216668081806M-185.31760697969355,-80.88614383664039L-125.39448150901006,-47.721657238522724" style="fill:none;stroke:rgb(0,0,0);stroke-width:1;stroke-linecap:round"></path><path d="M-230.79744375323577,-67.65158178501774L-195.17416765344876,-56.21118010101318L-195.17416765344876,-72.32166698572304z" style="fill:rgb(153,221,255); fill-opacity: 0.4"></path><path d="M-195.17416625714344,-56.21117992347072L-195.17416625714344,-72.3216668081806M-195.17416625714344,-56.21117992347072L-125.39448150901006,-47.721657238522724M-195.17416765344876,-72.32166698572304L-195.17416765344876,-56.21118010101318" style="fill:none;stroke:rgb(0,0,0);stroke-width:1;stroke-linecap:round"></path><path d="M-185.31760834506792,-80.88614442374357L-195.1741679750159,-56.21118020428435L-195.1741679750159,-72.32166708899422z" style="fill:rgb(255,187,187); fill-opacity: 0.4"></path><path d="M-195.17416765344876,-72.32166698572304L-195.17416765344876,-56.21118010101318L-185.3176080235008,-80.8861443204724z" style="fill:rgb(153,221,255); fill-opacity: 0.4"></path><path d="M-18.979331065813422,-102.58266314139932L-86.40668137455891,-124.23693126259411M-86.40668137455891,-124.23693126259411L-154.72714861747588,-64.87249629041526" style="fill:none;stroke:rgb(0,0,0);stroke-width:1;stroke-linecap:round"></path><path d="M-18.979331065813426,-102.58266314139932L-18.979331065813415,9.086725854127517L-86.4066813745589,-124.23693126259411z" style="fill:rgb(238,238,238); fill-opacity: 0.4"></path><path d="M-185.31760834506792,-64.7756575390337L-185.31760834506792,-80.88614442374357L-125.3944827568851,-47.721657927722426zM-195.1741679750159,-56.21118020428435L-185.31760834506792,-64.7756575390337L-125.3944827568851,-47.721657927722426z" style="fill:rgb(255,187,187); fill-opacity: 0.4"></path><path d="M-195.17416625714344,-72.3216668081806L-125.39448150901006,-47.721657238522724" style="fill:none;stroke:rgb(0,0,0);stroke-width:1;stroke-linecap:round"></path><path d="M-219.5785551526039,-85.6995010402389L-219.5785551526039,25.969887955287927L-151.258087909687,-145.06393601241774z" style="fill:rgb(238,238,238); fill-opacity: 0.4"></path><path d="M-45.469823868769325,-32.81809637916028L-112.89717417751483,-54.47236450035506M-112.89717417751483,-67.36075400812295L-112.89717417751483,-54.47236450035506M-112.89717417751483,-54.47236450035506L-120.78242188147317,-47.620782632555574" style="fill:none;stroke:rgb(0,0,0);stroke-width:1;stroke-linecap:round"></path><path d="M-86.4066813745589,-124.23693126259411L-86.4066813745589,-12.567542267067264L-154.72714861747588,-64.87249629041526z" style="fill:rgb(238,238,238); fill-opacity: 0.4"></path><path d="M-185.31760834506792,-80.88614442374357L-195.1741679750159,-72.32166708899422L-125.3944827568851,-47.721657927722426z" style="fill:rgb(255,187,187); fill-opacity: 0.4"></path><path d="M-255.20183125239095,14.529486271283359L-219.5785551526039,25.969887955287927L-219.5785551526039,-85.6995010402389z" style="fill:rgb(238,238,238); fill-opacity: 0.4"></path><path d="M-195.1741679750159,-72.32166708899422L-195.1741679750159,-56.21118020428435L-125.3944827568851,-47.721657927722426z" style="fill:rgb(255,187,187); fill-opacity: 0.4"></path><path d="M106.4673800768781,46.337503317170764L39.0400297681326,24.683235195975993M39.04002976813259,-64.65227354218027L39.0400297681326,24.683235195975993M39.0400297681326,24.683235195975993L-15.616342522209333,72.17478186688354M-45.469823868769325,-45.70648588692818L-112.89717417751483,-67.36075400812295M-112.89717417751483,-67.36075400812295L-120.7824218814732,-60.50917214032347" style="fill:none;stroke:rgb(0,0,0);stroke-width:1;stroke-linecap:round"></path><path d="M-112.89717417751483,-67.36075400812297L-112.89717417751483,-54.47236450035506L-120.78242188147317,-60.50917214032347z" style="fill:rgb(153,221,255); fill-opacity: 0.4"></path><path d="M-86.4066813745589,-12.567542267067264L-154.72714861747585,46.79689270511158L-154.72714861747588,-64.87249629041526zM-87.29979830873037,68.45116082630636L-154.72714861747585,46.79689270511158L-18.979331065813415,9.086725854127517zM-255.20183125239095,-97.13990272424347L-219.5785551526039,-85.6995010402389L-186.88136400947394,-156.50433769642234z" style="fill:rgb(238,238,238); fill-opacity: 0.4"></path><path d="M-112.89717417751483,-54.47236450035506L-120.78242188147317,-47.620782632555574L-120.78242188147317,-60.50917214032347z" style="fill:rgb(153,221,255); fill-opacity: 0.4"></path><path d="M-120.7824218814732,-60.50917214032347L-120.78242188147317,-47.620782632555574M-120.78242188147317,-47.620782632555574L-53.35507157272768,-25.966514511360796" style="fill:none;stroke:rgb(0,0,0);stroke-width:1;stroke-linecap:round"></path><path d="M-87.29979830873037,68.45116082630636L-18.979331065813415,9.086725854127517L-18.979331065813426,-102.58266314139932z" style="fill:rgb(238,238,238); fill-opacity: 0.4"></path><path d="M-45.469823868769325,-32.81809637916029L-112.89717417751483,-54.47236450035506L-112.89717417751483,-67.36075400812297zM-120.78242188147317,-47.620782632555574L-112.89717417751483,-54.47236450035506L-45.469823868769325,-32.81809637916029z" style="fill:rgb(153,221,255); fill-opacity: 0.4"></path><path d="M-154.72714861747588,-64.87249629041526L-154.72714861747585,46.79689270511158M-154.72714861747585,46.79689270511158L-87.29979830873037,68.45116082630636" style="fill:none;stroke:rgb(0,0,0);stroke-width:1;stroke-linecap:round"></path><path d="M-255.20183125239095,-97.13990272424347L-255.20183125239095,14.529486271283359L-219.5785551526039,-85.6995010402389z" style="fill:rgb(238,238,238); fill-opacity: 0.4"></path><path d="M-120.7824218814732,-60.50917214032347L-53.355071572727695,-38.854904019128696M-18.979331065813422,-102.58266314139932L-87.29979830873039,-43.218228169220474" style="fill:none;stroke:rgb(0,0,0);stroke-width:1;stroke-linecap:round"></path><path d="M-120.78242188147317,-60.50917214032347L-53.355071572727695,-38.854904019128696L-112.89717417751483,-67.36075400812297zM-120.78242188147317,-60.50917214032347L-120.78242188147317,-47.620782632555574L-53.355071572727695,-38.854904019128696zM-45.469823868769325,-45.70648588692818L-45.469823868769325,-32.81809637916029L-112.89717417751483,-67.36075400812297zM-53.355071572727695,-25.9665145113608L-120.78242188147317,-47.620782632555574L-45.469823868769325,-32.81809637916029z" style="fill:rgb(153,221,255); fill-opacity: 0.4"></path><path d="M-45.469823868769325,-45.70648588692818L-45.469823868769325,-32.81809637916028M-45.469823868769325,-32.81809637916028L-53.35507157272768,-25.966514511360796M-45.469824034187134,-45.706485139447885L-45.469824034187134,-32.81809639988788M-45.469824034187134,-32.81809639988788L-53.355071664708404,-25.966514595898715M-45.469824034187134,-32.81809639988788L14.693535685270671,-11.255345530237822" style="fill:none;stroke:rgb(0,0,0);stroke-width:1;stroke-linecap:round"></path><path d="M-53.355071572727695,-38.854904019128696L-45.469823868769325,-45.70648588692818L-112.89717417751483,-67.36075400812297z" style="fill:rgb(153,221,255); fill-opacity: 0.4"></path><path d="M-255.20183125239095,-97.13990272424346L-219.57855515260394,-85.6995010402389" style="fill:none;stroke:rgb(0,0,0);stroke-width:1;stroke-linecap:round"></path><path d="M-120.78242188147317,-47.620782632555574L-53.355071572727695,-25.9665145113608L-53.355071572727695,-38.854904019128696z" style="fill:rgb(153,221,255); fill-opacity: 0.4"></path><path d="M106.46738007687807,46.33750331717077L39.0400297681326,24.683235195975985L39.04002976813259,-64.65227354218027z" style="fill:rgb(238,238,238); fill-opacity: 0.4"></path><path d="M-53.355071572727695,-25.9665145113608L-45.469823868769325,-32.81809637916029L-45.469823868769325,-45.70648588692818z" style="fill:rgb(153,221,255); fill-opacity: 0.4"></path><path d="M-45.46982241523097,-45.706485420124885L-45.46982241523097,-32.818095912356995L-53.355070119189335,-25.966514044557506z" style="fill:rgb(255,187,187); fill-opacity: 0.4"></path><path d="M106.4673800768781,-42.99800542098549L106.4673800768781,46.337503317170764M106.4673800768781,46.337503317170764L51.81100778653617,93.82904998807831M-45.469824034187134,-45.706485139447885L-53.355071664708404,-38.85490333545874M-45.469824034187134,-45.706485139447885L14.693535685270671,-11.255345530237822M-45.469823868769325,-45.70648588692818L-53.355071572727695,-38.854904019128696" style="fill:none;stroke:rgb(0,0,0);stroke-width:1;stroke-linecap:round"></path><path d="M-15.61634252220933,72.17478186688354L39.0400297681326,24.683235195975985L106.46738007687807,46.33750331717077z" style="fill:rgb(238,238,238); fill-opacity: 0.4"></path><path d="M-53.355071664708404,-25.966514595898715L-53.355071664708404,-38.85490333545874M-53.355071664708404,-25.966514595898715L14.693535685270671,-11.255345530237822M-53.355071572727695,-38.854904019128696L-53.35507157272768,-25.966514511360796M90.86349503437582,31.133560523851845L23.43614472563032,9.479292402657066M23.43614472563032,-6.631194482052805L23.43614472563032,9.479292402657066M23.43614472563032,9.479292402657066L13.579585095682368,18.04376973740643" style="fill:none;stroke:rgb(0,0,0);stroke-width:1;stroke-linecap:round"></path><path d="M-87.29979830873039,-43.218228169220474L-18.979331065813426,-102.58266314139932L-86.4066813745589,-124.23693126259411z" style="fill:rgb(238,238,238); fill-opacity: 0.4"></path><path d="M-53.355071572727695,-38.854904019128696L-53.355071572727695,-25.9665145113608L-45.469823868769325,-45.70648588692818z" style="fill:rgb(153,221,255); fill-opacity: 0.4"></path><path d="M-45.46982241523097,-45.706485420124885L-53.355070119189335,-25.966514044557506L-53.355070119189335,-38.854903552325396zM-45.46982241523097,-32.818095912356995L-45.46982241523097,-45.706485420124885L14.69353574264198,-11.255345537730074zM-53.355070119189335,-25.966514044557506L-45.46982241523097,-32.818095912356995L14.69353574264198,-11.255345537730074z" style="fill:rgb(255,187,187); fill-opacity: 0.4"></path><path d="M-87.29979830873039,-43.218228169220474L-87.29979830873037,68.45116082630636M-53.355071664708404,-38.85490333545874L14.693535685270671,-11.255345530237822M90.86349503437582,15.023073639141973L23.43614472563032,-6.631194482052805M23.43614472563032,-6.631194482052805L13.579585095682368,1.9332828526965569" style="fill:none;stroke:rgb(0,0,0);stroke-width:1;stroke-linecap:round"></path><path d="M-45.46982241523097,-45.706485420124885L-53.355070119189335,-38.854903552325396L14.69353574264198,-11.255345537730074z" style="fill:rgb(255,187,187); fill-opacity: 0.4"></path><path d="M23.436144725630317,-6.631194482052804L23.436144725630317,9.479292402657066L13.579585095682363,1.9332828526965566z" style="fill:rgb(153,221,255); fill-opacity: 0.4"></path><path d="M-53.355070119189335,-38.854903552325396L-53.355070119189335,-25.966514044557506L14.69353574264198,-11.255345537730074z" style="fill:rgb(255,187,187); fill-opacity: 0.4"></path><path d="M23.436144725630317,9.479292402657066L13.579585095682363,18.043769737406425L13.579585095682363,1.9332828526965566z" style="fill:rgb(153,221,255); fill-opacity: 0.4"></path><path d="M13.579585095682368,1.9332828526965569L13.579585095682368,18.04376973740643M13.579585095682368,18.04376973740643L81.00693540442786,39.698037858601204" style="fill:none;stroke:rgb(0,0,0);stroke-width:1;stroke-linecap:round"></path><path d="M90.86349503437582,31.133560523851845L23.436144725630317,9.479292402657066L23.436144725630317,-6.631194482052804z" style="fill:rgb(153,221,255); fill-opacity: 0.4"></path><path d="M106.4673800768781,-42.99800542098549L39.04002976813259,-64.65227354218027M39.04002976813259,-64.65227354218027L-15.616342522209333,-17.160726871272722" style="fill:none;stroke:rgb(0,0,0);stroke-width:1;stroke-linecap:round"></path><path d="M13.579585095682363,18.043769737406425L23.436144725630317,9.479292402657066L90.86349503437582,31.133560523851845z" style="fill:rgb(153,221,255); fill-opacity: 0.4"></path><path d="M-154.72714861747585,46.79689270511158L-87.29979830873037,68.45116082630636L-87.29979830873039,-43.218228169220474zM-154.72714861747588,-64.87249629041526L-87.29979830873039,-43.218228169220474L-86.4066813745589,-124.23693126259411zM-87.29979830873039,-43.218228169220474L-87.29979830873037,68.45116082630636L-18.979331065813426,-102.58266314139932zM106.46738007687807,-42.998005420985486L106.46738007687807,46.33750331717077L39.04002976813259,-64.65227354218027zM39.04002976813259,-64.65227354218027L39.0400297681326,24.683235195975985L-15.61634252220934,-17.160726871272725z" style="fill:rgb(238,238,238); fill-opacity: 0.4"></path><path d="M13.579585095682368,1.9332828526965569L81.00693540442786,23.587550973891336M261.22192467818905,96.036866949669L171.31878681005375,67.16450813059735M171.31878681005372,-22.1710006075589L171.31878681005375,67.16450813059735M171.31878681005375,67.16450813059735L116.66241451971182,114.6560548015049" style="fill:none;stroke:rgb(0,0,0);stroke-width:1;stroke-linecap:round"></path><path d="M-154.72714861747588,-64.87249629041526L-154.72714861747585,46.79689270511158L-87.29979830873039,-43.218228169220474zM39.0400297681326,24.683235195975985L-15.61634252220933,72.17478186688354L-15.61634252220934,-17.160726871272725z" style="fill:rgb(238,238,238); fill-opacity: 0.4"></path><path d="M90.86349503437582,15.023073639141975L90.86349503437582,31.133560523851845L23.436144725630317,-6.631194482052804zM13.579585095682363,1.9332828526965566L81.00693540442786,23.587550973891336L23.436144725630317,-6.631194482052804zM13.579585095682363,1.9332828526965566L13.579585095682363,18.043769737406425L81.00693540442786,23.587550973891336zM81.00693540442786,39.698037858601204L13.579585095682363,18.043769737406425L90.86349503437582,31.133560523851845z" style="fill:rgb(153,221,255); fill-opacity: 0.4"></path><path d="M51.811007786536166,93.82904998807831L-15.61634252220933,72.17478186688354L106.46738007687807,46.33750331717077z" style="fill:rgb(238,238,238); fill-opacity: 0.4"></path><path d="M90.86349503437582,15.023073639141973L90.86349503437582,31.133560523851845M90.86349503437582,31.133560523851845L81.00693540442786,39.698037858601204M90.86349817240779,15.023074705237596L90.86349817240779,31.13356096577857M90.86349817240779,31.13356096577857L81.00693854245984,39.69803830052793M90.86349817240779,31.13356096577857L150.78661757587864,48.1875593590798M-15.616342522209333,-17.160726871272722L-15.616342522209333,72.17478186688354M-15.616342522209333,72.17478186688354L51.81100778653617,93.82904998807831" style="fill:none;stroke:rgb(0,0,0);stroke-width:1;stroke-linecap:round"></path><path d="M81.00693540442786,23.587550973891336L90.86349503437582,15.023073639141975L23.436144725630317,-6.631194482052804z" style="fill:rgb(153,221,255); fill-opacity: 0.4"></path><path d="M51.811007786536166,93.82904998807831L106.46738007687807,46.33750331717077L106.46738007687807,-42.998005420985486z" style="fill:rgb(238,238,238); fill-opacity: 0.4"></path><path d="M13.579585095682363,18.043769737406425L81.00693540442786,39.698037858601204L81.00693540442786,23.587550973891336z" style="fill:rgb(153,221,255); fill-opacity: 0.4"></path><path d="M-154.72714861747588,-64.87249629041526L-87.29979830873039,-43.218228169220474" style="fill:none;stroke:rgb(0,0,0);stroke-width:1;stroke-linecap:round"></path><path d="M81.00693540442786,39.698037858601204L90.86349503437582,31.133560523851845L90.86349503437582,15.023073639141975z" style="fill:rgb(153,221,255); fill-opacity: 0.4"></path><path d="M90.86349648791418,15.02307410594527L90.86349648791418,31.13356099065514L81.00693685796622,39.6980383254045z" style="fill:rgb(255,187,187); fill-opacity: 0.4"></path><path d="M90.86349503437582,15.023073639141973L81.00693540442786,23.587550973891336M90.86349817240779,15.023074705237596L81.00693854245984,23.58755203998696M90.86349817240779,15.023074705237596L150.78661757587864,48.1875593590798M81.00693540442786,23.587550973891336L81.00693540442786,39.698037858601204M81.00693854245984,39.69803830052793L81.00693854245984,23.58755203998696M81.00693854245984,39.69803830052793L150.78661757587864,48.1875593590798" style="fill:none;stroke:rgb(0,0,0);stroke-width:1;stroke-linecap:round"></path><path d="M81.00693540442786,23.587550973891336L81.00693540442786,39.698037858601204L90.86349503437582,15.023073639141975z" style="fill:rgb(153,221,255); fill-opacity: 0.4"></path><path d="M90.86349648791418,15.02307410594527L81.00693685796622,39.6980383254045L81.00693685796622,23.587551440694632z" style="fill:rgb(255,187,187); fill-opacity: 0.4"></path><path d="M106.4673800768781,-42.99800542098549L51.81100778653615,4.493541249922053" style="fill:none;stroke:rgb(0,0,0);stroke-width:1;stroke-linecap:round"></path><path d="M90.86349648791418,31.13356099065514L90.86349648791418,15.02307410594527L150.786622076097,48.18756060196641zM81.00693685796622,39.6980383254045L90.86349648791418,31.13356099065514L150.786622076097,48.18756060196641z" style="fill:rgb(255,187,187); fill-opacity: 0.4"></path><path d="M81.00693854245984,23.58755203998696L150.78661757587864,48.1875593590798" style="fill:none;stroke:rgb(0,0,0);stroke-width:1;stroke-linecap:round"></path><path d="M90.86349648791418,15.02307410594527L81.00693685796622,23.587551440694632L150.786622076097,48.18756060196641zM81.00693685796622,23.587551440694632L81.00693685796622,39.6980383254045L150.786622076097,48.18756060196641z" style="fill:rgb(255,187,187); fill-opacity: 0.4"></path><path d="M261.22192467818905,96.03686694966899L171.31878681005378,67.16450813059734L171.31878681005375,-22.171000607558916zM51.811007786536166,4.493541249922057L106.46738007687807,-42.998005420985486L39.04002976813259,-64.65227354218027z" style="fill:rgb(238,238,238); fill-opacity: 0.4"></path><path d="M240.20433269933312,97.69225298827347L150.3011948311978,68.81989416920182M150.3011948311978,55.93150466143392L150.3011948311978,68.81989416920182M150.3011948311978,68.81989416920182L142.41594712723943,75.6714760370013" style="fill:none;stroke:rgb(0,0,0);stroke-width:1;stroke-linecap:round"></path><path d="M116.66241451971183,114.65605480150488L171.31878681005378,67.16450813059734L261.22192467818905,96.03686694966899z" style="fill:rgb(238,238,238); fill-opacity: 0.4"></path><path d="M51.81100778653615,4.493541249922053L51.81100778653617,93.82904998807831M261.22192467818905,6.701358211512743L261.22192467818905,96.036866949669M261.22192467818905,96.036866949669L206.56555238784713,143.52841362057654M240.20433269933312,84.80386348050557L150.3011948311978,55.93150466143392M150.3011948311978,55.93150466143392L142.41594712723943,62.78308652923341" style="fill:none;stroke:rgb(0,0,0);stroke-width:1;stroke-linecap:round"></path><path d="M150.30119483119782,55.93150466143391L150.30119483119782,68.81989416920182L142.41594712723946,62.783086529233394zM150.30119483119782,68.81989416920182L142.41594712723946,75.6714760370013L142.41594712723946,62.783086529233394z" style="fill:rgb(153,221,255); fill-opacity: 0.4"></path><path d="M-15.61634252220933,72.17478186688354L51.811007786536166,93.82904998807831L51.811007786536166,4.493541249922057zM-15.61634252220934,-17.160726871272725L51.811007786536166,4.493541249922057L39.04002976813259,-64.65227354218027z" style="fill:rgb(238,238,238); fill-opacity: 0.4"></path><path d="M142.41594712723943,62.78308652923341L142.41594712723943,75.6714760370013M142.41594712723943,75.6714760370013L232.31908499537474,104.54383485607295" style="fill:none;stroke:rgb(0,0,0);stroke-width:1;stroke-linecap:round"></path><path d="M51.811007786536166,4.493541249922057L51.811007786536166,93.82904998807831L106.46738007687807,-42.998005420985486z" style="fill:rgb(238,238,238); fill-opacity: 0.4"></path><path d="M261.22192467818905,6.701358211512743L171.31878681005372,-22.1710006075589M171.31878681005372,-22.1710006075589L116.66241451971182,25.32054606334864" style="fill:none;stroke:rgb(0,0,0);stroke-width:1;stroke-linecap:round"></path><path d="M-15.61634252220934,-17.160726871272725L-15.61634252220933,72.17478186688354L51.811007786536166,4.493541249922057z" style="fill:rgb(238,238,238); fill-opacity: 0.4"></path><path d="M240.20433269933307,97.69225298827344L150.30119483119782,68.81989416920182L150.30119483119782,55.93150466143391z" style="fill:rgb(153,221,255); fill-opacity: 0.4"></path><path d="M142.41594712723943,62.78308652923341L232.31908499537474,91.65544534830505" style="fill:none;stroke:rgb(0,0,0);stroke-width:1;stroke-linecap:round"></path><path d="M142.41594712723946,75.6714760370013L150.30119483119782,68.81989416920182L240.20433269933307,97.69225298827344z" style="fill:rgb(153,221,255); fill-opacity: 0.4"></path><path d="M171.31878681005375,-22.171000607558916L171.31878681005378,67.16450813059734L116.66241451971182,25.320546063348626z" style="fill:rgb(238,238,238); fill-opacity: 0.4"></path><path d="M-15.616342522209333,-17.160726871272722L51.81100778653615,4.493541249922053" style="fill:none;stroke:rgb(0,0,0);stroke-width:1;stroke-linecap:round"></path><path d="M261.22192467818905,6.70135821151273L261.22192467818905,96.03686694966899L171.31878681005375,-22.171000607558916zM171.31878681005378,67.16450813059734L116.66241451971183,114.65605480150488L116.66241451971182,25.320546063348626z" style="fill:rgb(238,238,238); fill-opacity: 0.4"></path><path d="M142.41594712723946,62.783086529233394L232.31908499537474,91.65544534830502L150.30119483119782,55.93150466143391zM142.41594712723946,62.783086529233394L142.41594712723946,75.6714760370013L232.31908499537474,91.65544534830502zM240.20433269933307,84.80386348050556L240.20433269933307,97.69225298827344L150.30119483119782,55.93150466143391z" style="fill:rgb(153,221,255); fill-opacity: 0.4"></path><path d="M116.66241451971182,25.32054606334864L116.66241451971182,114.6560548015049M116.66241451971182,114.6560548015049L206.56555238784713,143.52841362057654" style="fill:none;stroke:rgb(0,0,0);stroke-width:1;stroke-linecap:round"></path><path d="M232.31908499537474,104.54383485607293L142.41594712723946,75.6714760370013L240.20433269933307,97.69225298827344z" style="fill:rgb(153,221,255); fill-opacity: 0.4"></path><path d="M206.5655523878471,143.52841362057652L116.66241451971183,114.65605480150488L261.22192467818905,96.03686694966899z" style="fill:rgb(238,238,238); fill-opacity: 0.4"></path><path d="M232.31908499537474,91.65544534830502L240.20433269933307,84.80386348050556L150.30119483119782,55.93150466143391zM142.41594712723946,75.6714760370013L232.31908499537474,104.54383485607293L232.31908499537474,91.65544534830502z" style="fill:rgb(153,221,255); fill-opacity: 0.4"></path><path d="M240.20432851139105,84.80386230326323L240.20432851139105,97.69225027461536M240.20432851139105,97.69225027461536L232.31908068993337,104.54383224451139M240.20432851139105,97.69225027461536L300.52111733210114,110.61111122929897M240.20433269933312,84.80386348050557L240.20433269933312,97.69225298827347M240.20433269933312,97.69225298827347L232.31908499537474,104.54383485607295" style="fill:none;stroke:rgb(0,0,0);stroke-width:1;stroke-linecap:round"></path><path d="M206.5655523878471,143.52841362057652L261.22192467818905,96.03686694966899L261.22192467818905,6.70135821151273z" style="fill:rgb(238,238,238); fill-opacity: 0.4"></path><path d="M240.20433257581362,84.80386344083732L240.20433257581362,97.6922529486052L232.3190848718553,104.54383481640471z" style="fill:rgb(255,187,187); fill-opacity: 0.4"></path><path d="M232.31908499537474,104.54383485607293L240.20433269933307,97.69225298827344L240.20433269933307,84.80386348050556z" style="fill:rgb(153,221,255); fill-opacity: 0.4"></path><path d="M240.20432851139105,84.80386230326323L232.31908068993337,91.65544427315923M240.20432851139105,84.80386230326323L300.52111733210114,110.61111122929897M240.20433269933312,84.80386348050557L232.31908499537474,91.65544534830505M409.1444202261546,140.50573409764604L319.2412823580193,111.63337527857436M319.2412823580193,44.6317467977887L319.2412823580193,111.63337527857436M319.2412823580193,111.63337527857436L278.2490050202524,147.2520336482106M232.31908068993337,104.54383224451139L232.31908068993337,91.65544427315923M232.31908068993337,104.54383224451139L300.52111733210114,110.61111122929897M232.31908499537474,91.65544534830505L232.31908499537474,104.54383485607295" style="fill:none;stroke:rgb(0,0,0);stroke-width:1;stroke-linecap:round"></path><path d="M240.20433257581362,84.80386344083732L232.3190848718553,104.54383481640471L232.3190848718553,91.65544530863681z" style="fill:rgb(255,187,187); fill-opacity: 0.4"></path><path d="M232.31908499537474,91.65544534830502L232.31908499537474,104.54383485607293L240.20433269933307,84.80386348050556z" style="fill:rgb(153,221,255); fill-opacity: 0.4"></path><path d="M261.22192467818905,6.701358211512743L206.56555238784713,54.19290488242029" style="fill:none;stroke:rgb(0,0,0);stroke-width:1;stroke-linecap:round"></path><path d="M240.20433257581362,97.6922529486052L240.20433257581362,84.80386344083732L300.5211215484073,110.61111270185138z" style="fill:rgb(255,187,187); fill-opacity: 0.4"></path><path d="M232.31908068993337,91.65544427315923L300.52111733210114,110.61111122929897" style="fill:none;stroke:rgb(0,0,0);stroke-width:1;stroke-linecap:round"></path><path d="M232.3190848718553,104.54383481640471L240.20433257581362,97.6922529486052L300.5211215484073,110.61111270185138zM240.20433257581362,84.80386344083732L232.3190848718553,91.65544530863681L300.5211215484073,110.61111270185138zM232.3190848718553,91.65544530863681L232.3190848718553,104.54383481640471L300.5211215484073,110.61111270185138z" style="fill:rgb(255,187,187); fill-opacity: 0.4"></path><path d="M206.5655523878471,54.19290488242027L261.22192467818905,6.70135821151273L171.31878681005375,-22.171000607558916zM116.66241451971182,25.320546063348626L206.5655523878471,54.19290488242027L171.31878681005375,-22.171000607558916z" style="fill:rgb(238,238,238); fill-opacity: 0.4"></path><path d="M206.56555238784713,54.19290488242029L206.56555238784713,143.52841362057654" style="fill:none;stroke:rgb(0,0,0);stroke-width:1;stroke-linecap:round"></path><path d="M409.1444202261546,140.505734097646L319.24128235801936,111.63337527857436L319.24128235801936,44.6317467977887zM116.66241451971183,114.65605480150488L206.5655523878471,143.52841362057652L206.5655523878471,54.19290488242027zM116.66241451971182,25.320546063348626L116.66241451971183,114.65605480150488L206.5655523878471,54.19290488242027zM278.2490050202524,147.2520336482106L319.24128235801936,111.63337527857436L409.1444202261546,140.505734097646z" style="fill:rgb(238,238,238); fill-opacity: 0.4"></path><path d="M116.66241451971182,25.32054606334864L206.56555238784713,54.19290488242029" style="fill:none;stroke:rgb(0,0,0);stroke-width:1;stroke-linecap:round"></path><path d="M206.5655523878471,54.19290488242027L206.5655523878471,143.52841362057652L261.22192467818905,6.70135821151273z" style="fill:rgb(238,238,238); fill-opacity: 0.4"></path><path d="M409.1444202261546,73.50410561686034L319.2412823580193,44.6317467977887M319.2412823580193,44.6317467977887L278.2490050202524,80.25040516742494M409.1444202261546,73.50410561686034L409.1444202261546,140.50573409764604M409.1444202261546,140.50573409764604L368.15214288838774,176.12439246728226" style="fill:none;stroke:rgb(0,0,0);stroke-width:1;stroke-linecap:round"></path><path d="M319.24128235801936,44.6317467977887L319.24128235801936,111.63337527857436L278.2490050202524,80.25040516742494zM319.24128235801936,111.63337527857436L278.2490050202524,147.2520336482106L278.2490050202524,80.25040516742494z" style="fill:rgb(238,238,238); fill-opacity: 0.4"></path><path d="M278.2490050202524,80.25040516742494L278.2490050202524,147.2520336482106M278.2490050202524,147.2520336482106L368.15214288838774,176.12439246728226" style="fill:none;stroke:rgb(0,0,0);stroke-width:1;stroke-linecap:round"></path><path d="M409.1444202261546,73.50410561686036L409.1444202261546,140.505734097646L319.24128235801936,44.6317467977887zM368.1521428883877,176.12439246728226L278.2490050202524,147.2520336482106L409.1444202261546,140.505734097646z" style="fill:rgb(238,238,238); fill-opacity: 0.4"></path><path d="M494.0454100119922,227.66076534811077L471.56962554495834,220.44267564334285M471.56962554495834,66.18503413141903L471.56962554495834,220.44267564334285M471.56962554495834,220.44267564334285L457.9055324723729,232.31556231106975" style="fill:none;stroke:rgb(0,0,0);stroke-width:1;stroke-linecap:round"></path><path d="M368.1521428883877,176.12439246728226L409.1444202261546,140.505734097646L409.1444202261546,73.50410561686036zM457.9055324723729,232.31556231106978L471.56962554495834,220.4426756433429L494.0454100119921,227.66076534811083z" style="fill:rgb(238,238,238); fill-opacity: 0.4"></path><path d="M409.1444202261546,73.50410561686034L368.15214288838774,109.1227639864966M494.0454100119922,73.40312383618696L494.0454100119922,227.66076534811077M494.0454100119922,227.66076534811077L480.38131693940676,239.53365201583767" style="fill:none;stroke:rgb(0,0,0);stroke-width:1;stroke-linecap:round"></path><path d="M368.1521428883877,109.1227639864966L409.1444202261546,73.50410561686036L319.24128235801936,44.6317467977887zM278.2490050202524,80.25040516742494L368.1521428883877,109.1227639864966L319.24128235801936,44.6317467977887z" style="fill:rgb(238,238,238); fill-opacity: 0.4"></path><path d="M457.9055324723729,78.05792079914592L457.9055324723729,232.31556231106975M457.9055324723729,232.31556231106975L480.38131693940676,239.53365201583767" style="fill:none;stroke:rgb(0,0,0);stroke-width:1;stroke-linecap:round"></path><path d="M480.3813169394067,239.53365201583773L457.9055324723729,232.31556231106978L494.0454100119921,227.66076534811083z" style="fill:rgb(238,238,238); fill-opacity: 0.4"></path><path d="M278.2490050202524,80.25040516742494L368.15214288838774,109.1227639864966" style="fill:none;stroke:rgb(0,0,0);stroke-width:1;stroke-linecap:round"></path><path d="M278.2490050202524,80.25040516742494L278.2490050202524,147.2520336482106L368.1521428883877,109.1227639864966zM278.2490050202524,147.2520336482106L368.1521428883877,176.12439246728226L368.1521428883877,109.1227639864966z" style="fill:rgb(238,238,238); fill-opacity: 0.4"></path><path d="M403.12874390654656,129.4646440641845L439.87787363500206,141.26661321641637M368.15214288838774,109.1227639864966L368.15214288838774,176.12439246728226M480.38131693940676,85.27601050391384L480.38131693940676,239.53365201583767" style="fill:none;stroke:rgb(0,0,0);stroke-width:1;stroke-linecap:round"></path><path d="M368.1521428883877,109.1227639864966L368.1521428883877,176.12439246728226L409.1444202261546,73.50410561686036zM494.0454100119921,227.66076534811083L471.56962554495834,220.4426756433429L471.56962554495834,66.18503413141904zM471.56962554495834,220.4426756433429L457.9055324723729,232.31556231106978L457.9055324723729,78.05792079914592z" style="fill:rgb(238,238,238); fill-opacity: 0.4"></path><path d="M435.19080088596024,147.82847149054618L439.8778736350022,149.32185665877134L461.4950087693877,148.2089480118469z" style="fill:rgb(0,0,0)"></path><path d="M480.3813169394067,239.53365201583773L494.0454100119921,227.66076534811083L494.0454100119921,73.40312383618696z" style="fill:rgb(238,238,238); fill-opacity: 0.4"></path><path d="M442.774643788488,132.23274761169185L436.98110348151636,137.26682101152753L461.4950087693877,148.2089480118469zM436.98110348151636,137.26682101152753L435.19080088596024,147.82847149054618L461.4950087693877,148.2089480118469z" style="fill:rgb(0,0,0)"></path><path d="M457.9055324723729,232.31556231106978L480.3813169394067,239.53365201583773L480.3813169394067,85.27601050391385z" style="fill:rgb(238,238,238); fill-opacity: 0.4"></path><path d="M581.372599820423,215.67280458370735L558.8968153533891,208.45471487893943M558.8968153533891,134.26318303827318L558.8968153533891,208.45471487893943M558.8968153533891,208.45471487893943L545.2327222808037,220.32760154666633" style="fill:none;stroke:rgb(0,0,0);stroke-width:1;stroke-linecap:round"></path><path d="M471.56962554495834,66.18503413141904L471.56962554495834,220.4426756433429L457.9055324723729,78.05792079914592z" style="fill:rgb(238,238,238); fill-opacity: 0.4"></path><path d="M490.45593371497733,157.50973813540983L527.2050634434329,169.31170728764167" style="fill:none;stroke:rgb(0,0,0);stroke-width:1;stroke-linecap:round"></path><path d="M494.0454100119921,73.40312383618696L494.0454100119921,227.66076534811083L471.56962554495834,66.18503413141904zM545.2327222808037,220.32760154666633L558.8968153533891,208.45471487893943L581.372599820423,215.67280458370735z" style="fill:rgb(238,238,238); fill-opacity: 0.4"></path><path d="M581.372599820423,141.48127274304107L581.372599820423,215.67280458370735M581.372599820423,215.67280458370735L567.7085067478375,227.54569125143425" style="fill:none;stroke:rgb(0,0,0);stroke-width:1;stroke-linecap:round"></path><path d="M457.9055324723729,78.05792079914592L457.9055324723729,232.31556231106978L480.3813169394067,85.27601050391385zM480.3813169394067,85.27601050391385L480.3813169394067,239.53365201583773L494.0454100119921,73.40312383618696z" style="fill:rgb(238,238,238); fill-opacity: 0.4"></path><path d="M545.2327222808037,146.13606970600006L545.2327222808037,220.32760154666633M545.2327222808037,220.32760154666633L567.7085067478375,227.54569125143425" style="fill:none;stroke:rgb(0,0,0);stroke-width:1;stroke-linecap:round"></path><path d="M581.372599820423,215.67280458370735L558.8968153533891,208.45471487893943L558.8968153533891,134.26318303827316zM567.7085067478375,227.54569125143425L545.2327222808037,220.32760154666633L581.372599820423,215.67280458370735z" style="fill:rgb(238,238,238); fill-opacity: 0.4"></path><path d="M522.517990694391,175.87356556177144L527.2050634434329,177.3669507299966L548.8221985778184,176.25404208307216z" style="fill:rgb(0,0,0)"></path><path d="M494.0454100119922,73.40312383618696L471.56962554495834,66.18503413141903M471.56962554495834,66.18503413141903L457.9055324723729,78.05792079914592" style="fill:none;stroke:rgb(0,0,0);stroke-width:1;stroke-linecap:round"></path><path d="M530.1018335969187,160.2778416829171L524.3082932899471,165.3119150827528L548.8221985778184,176.25404208307216zM524.3082932899471,165.3119150827528L522.517990694391,175.87356556177144L548.8221985778184,176.25404208307216z" style="fill:rgb(0,0,0)"></path><path d="M558.8968153533891,208.45471487893943L545.2327222808037,220.32760154666633L545.2327222808037,146.13606970600003z" style="fill:rgb(238,238,238); fill-opacity: 0.4"></path><path d="M567.7085067478375,153.35415941076798L567.7085067478375,227.54569125143425" style="fill:none;stroke:rgb(0,0,0);stroke-width:1;stroke-linecap:round"></path><path d="M567.7085067478375,227.54569125143425L581.372599820423,215.67280458370735L581.372599820423,141.48127274304107zM558.8968153533891,134.26318303827316L558.8968153533891,208.45471487893943L545.2327222808037,146.13606970600003z" style="fill:rgb(238,238,238); fill-opacity: 0.4"></path><path d="M494.0454100119922,73.40312383618696L480.38131693940676,85.27601050391384" style="fill:none;stroke:rgb(0,0,0);stroke-width:1;stroke-linecap:round"></path><path d="M581.372599820423,141.48127274304107L581.372599820423,215.67280458370735L558.8968153533891,134.26318303827316zM480.3813169394067,85.27601050391385L494.0454100119921,73.40312383618696L471.56962554495834,66.18503413141904zM545.2327222808037,220.32760154666633L567.7085067478375,227.54569125143425L567.7085067478375,153.35415941076795zM457.9055324723729,78.05792079914592L480.3813169394067,85.27601050391385L471.56962554495834,66.18503413141904z" style="fill:rgb(238,238,238); fill-opacity: 0.4"></path><path d="M457.9055324723729,78.05792079914592L480.38131693940676,85.27601050391384M581.372599820423,141.48127274304107L558.8968153533891,134.26318303827318M558.8968153533891,134.26318303827318L545.2327222808037,146.13606970600006" style="fill:none;stroke:rgb(0,0,0);stroke-width:1;stroke-linecap:round"></path><path d="M545.2327222808037,146.13606970600003L545.2327222808037,220.32760154666633L567.7085067478375,153.35415941076795zM567.7085067478375,153.35415941076795L567.7085067478375,227.54569125143425L581.372599820423,141.48127274304107z" style="fill:rgb(238,238,238); fill-opacity: 0.4"></path><path d="M581.372599820423,141.48127274304107L567.7085067478375,153.35415941076798" style="fill:none;stroke:rgb(0,0,0);stroke-width:1;stroke-linecap:round"></path><path d="M567.7085067478375,153.35415941076795L581.372599820423,141.48127274304107L558.8968153533891,134.26318303827316zM545.2327222808037,146.13606970600003L567.7085067478375,153.35415941076795L558.8968153533891,134.26318303827316z" style="fill:rgb(238,238,238); fill-opacity: 0.4"></path><path d="M545.2327222808037,146.13606970600006L567.7085067478375,153.35415941076798" style="fill:none;stroke:rgb(0,0,0);stroke-width:1;stroke-linecap:round"></path></svg>